PathFileType	4	(X/Y/Z)	C:/Users/beibeiliu/ov580/test_trc/User2\sequence.26_training_dense_left.trc
DataRate	CameraRate	NumFrames	NumMarkers	Units	OrigDataRate	OrigDataStartFrame	OrigNumFrames
120	120	21	19	mm	120	316	361
Frame#	Time	ThumbCMC			ThumbMCP			ThumbIP			ThumbTip			IndexMCP			IndexPIP			IndexTip			MiddleMCP			MiddlePIP			MiddleTip			RingMCP			RingPIP			RingTip			PinkyMCP			PinkyPIP			PinkyTip			BackHand1			BackHand2			BackHand3	
		X0	Y0	Z0	X1	Y1	Z1	X2	Y2	Z2	X3	Y3	Z3	X4	Y4	Z4	X5	Y5	Z5	X6	Y6	Z6	X7	Y7	Z7	X8	Y8	Z8	X9	Y9	Z9	X10	Y10	Z10	X11	Y11	Z11	X12	Y12	Z12	X13	Y13	Z13	X14	Y14	Z14	X15	Y15	Z15	X16	Y16	Z16	X17	Y17	Z17	X18	Y18	Z18	
315	2.625	-139.977	-46.9402	92.7162	-124.86	-62.0835	68.6217	-113.286	-75.8974	40.5012	-106.599	-87.6961	13.4466	-164.289	-21.9788	12.0181	-161.832	-16.747	-12.3251	-161.322	-9.95749	-37.6753	-195.568	-26.1696	5.83299	-201.148	-28.1993	-23.2222	-210.933	-29.7468	-50.6885	-223.117	-37.9155	18.0517	-232.159	-46.4742	-6.46603	-241.651	-52.7466	-30.3112	-238.812	-46.1678	36.5212	-251.685	-52.6618	15.1203	-267.033	-52.6132	-4.41259	-206.536	-23.7339	74.6042	-206.908	-20.3759	107.441	-174.412	-18.6169	85.4523	
316	2.63333	-141.441	-48.3742	91.1209	-125.775	-61.6283	66.1944	-109.22	-75.7143	35.9998	-109.484	-88.8388	18.0042	-163.184	-23.6232	17.6593	-164.492	-18.5685	-9.72069	-159.228	-10.0527	-39.6355	-193.642	-26.5335	7.72651	-203.603	-30.7066	-21.4359	-210.9	-31.6684	-53.5228	-223.929	-35.8536	15.9824	-231.182	-40.3287	-6.07954	-240.705	-45.3491	-31.1337	-241.969	-43.1429	35.9033	-252.925	-47.5927	16.376	-262.706	-43.8828	-3.13559	-206.536	-24.1102	75.6591	-203.186	-19.4451	107.844	-170.029	-18.2885	83.6942	
317	2.64167	-137.457	-49.4289	91.3344	-123.081	-64.7798	70.2293	-109.149	-79.0034	38.9381	-106.249	-91.5403	15.7417	-163.764	-24.5158	12.9119	-161.747	-22.1954	-11.1591	-161.461	-16.5184	-42.1558	-194.738	-24.8163	10.47	-194.577	-26.8978	-23.4286	-205.923	-25.8377	-49.5824	-221.286	-31.3591	16.8962	-225.023	-32.1901	-6.10483	-235.235	-32.6464	-34.247	-237.476	-40.4325	38.6811	-250.576	-40.6786	15.0338	-262.986	-32.777	-5.13745	-207.808	-22.8588	76.0592	-202.948	-21.6461	107.055	-170.461	-21.6067	83.8604	
318	2.65	-137.805	-50.1548	92.5233	-122.629	-65.724	71.95	-110.502	-80.928	39.4172	-109.551	-93.2083	19.6778	-160.302	-26.9427	11.557	-154.428	-27.2289	-12.6252	-157.163	-25.6119	-39.9661	-186.465	-21.3371	6.38327	-193.557	-19.2842	-20.3283	-195.66	-14.5011	-50.3699	-213.636	-26.6729	20.8808	-222.425	-23.5652	-6.10666	-230.557	-19.2356	-35.5736	-236.672	-38.9439	39.3697	-246.234	-36.9874	14.6732	-258.895	-30.3179	-1.65804	-206.564	-24.1431	76.7261	-202.841	-22.0302	107.901	-169.567	-19.8207	86.7742	
319	2.65833	-137.632	-51.2592	91.0058	-120.62	-67.7506	72.9618	-109.049	-83.6562	40.6648	-110.08	-95.4868	21.4083	-155.263	-29.061	11.5406	-156.026	-31.7637	-12.1981	-157.341	-34.6597	-42.5947	-186.894	-16.169	8.65213	-184.229	-10.5575	-20.7092	-186.906	-3.43884	-46.1123	-211.886	-22.9082	19.1707	-218.463	-19.6163	-3.56086	-225.513	-11.306	-31.2034	-231.541	-37.0767	37.4246	-247.76	-35.1897	17.4291	-257.775	-24.4406	-3.11239	-205.722	-24.301	70.9447	-201.031	-20.6306	106.707	-170.802	-19.6431	85.9369	
320	2.66667	-140.748	-51.0668	94.5315	-121.942	-68.4262	68.9812	-111.091	-84.7981	40.5644	-107.763	-97.0587	17.8323	-157.844	-29.3405	14.9243	-150.901	-32.3427	-13.1988	-148.609	-37.6437	-44.1381	-183.887	-16.2114	13.4548	-179.522	-6.82063	-18.1555	-184.889	2.71128	-44.9333	-210.805	-20.7737	17.7667	-217.897	-14.621	-5.69465	-222.578	-6.15438	-34.2825	-232.754	-36.6252	38.179	-241.914	-33.0175	14.0109	-256.019	-22.8	-5.84306	-207.536	-22.2553	71.9186	-202.413	-19.1882	105.743	-168.98	-21.3327	88.09	
321	2.675	-140.096	-51.1086	90.034	-118.73	-71.9258	72.5655	-109.844	-88.0542	44.1017	-106.818	-102.375	20.7419	-154.994	-29.368	10.5786	-146.442	-32.146	-11.6241	-144.982	-35.0071	-44.1672	-177.995	-14.1475	10.8591	-178.925	-8.12964	-14.3771	-178.577	3.80928	-44.417	-206.825	-21.8273	20.2494	-212.738	-16.0332	-7.07002	-218.052	-8.83426	-33.1862	-227.904	-38.7062	37.028	-243.128	-35.4036	12.3345	-252.413	-25.008	-7.50592	-204.516	-24.1773	72.8683	-199.838	-19.0824	106.104	-168.838	-19.5334	86.3204	
322	2.68333	-138.531	-52.7214	95.3463	-121.344	-73.3132	69.6934	-110.132	-92.0538	43.8097	-111.949	-105.306	19.5776	-152.431	-27.7865	10.4339	-146.64	-28.9043	-11.583	-142.991	-31.4856	-39.5767	-175.286	-14.7619	11.8427	-178.829	-7.70476	-15.1074	-173.688	4.65516	-46.3503	-209.522	-23.5794	18.9303	-213.194	-18.4393	-6.1509	-215.86	-13.2328	-32.4206	-228.173	-39.0908	32.4239	-243.376	-38.3594	10.6066	-247.846	-31.0188	-8.00849	-200.718	-25.9439	73.1855	-201.114	-22.1611	104.212	-169.532	-21.2156	82.0404	
323	2.69167	-136.189	-53.3436	92.3298	-123.135	-75.3954	73.1157	-116.466	-94.3395	46.6407	-115.339	-109.463	23.8021	-150.124	-26.5774	14.059	-139.267	-27.4186	-8.04572	-135.743	-27.6154	-40.1013	-176.176	-15.3628	12.5275	-173.78	-6.91306	-16.3306	-173.095	4.38715	-47.3403	-205.849	-22.5454	15.4031	-214.427	-19.2351	-6.54739	-218.221	-13.0357	-35.1859	-227.213	-41.0035	32.8026	-239.562	-39.3232	9.98838	-249.624	-31.514	-10.8906	-206.041	-24.3014	74.9512	-202.206	-22.7505	102.207	-164.938	-20.7945	84.0163	
324	2.7	-137.554	-54.2881	92.8413	-126.981	-76.8681	72.4656	-117.351	-97.2054	43.0442	-118.388	-112.096	24.3889	-150.038	-25.8348	16.6759	-141.093	-26.3717	-10.1624	-133.321	-27.3138	-36.874	-177.228	-15.3392	14.8991	-177.1	-7.11232	-14.3486	-175.837	2.32533	-42.5483	-203.604	-23.5291	15.6817	-209.597	-19.3011	-6.36214	-215.714	-12.8197	-36.2521	-224.859	-41.3844	34.2658	-239.527	-40.9388	9.00987	-244.074	-33.639	-13.4687	-206.088	-23.9739	72.654	-204.37	-22.7213	104.539	-169.327	-19.5534	87.2786	
325	2.70833	-136.398	-54.0814	92.3545	-123.389	-79.1749	69.7504	-120.217	-97.6246	38.6493	-123.715	-112.205	19.9344	-148.095	-26.0741	17.0299	-137.023	-28.6679	-10.6612	-131.605	-32.3836	-36.9191	-174.928	-13.3947	11.6071	-174.499	-6.3724	-15.4623	-169.894	3.94772	-43.5362	-205.169	-22.9906	18.2695	-210.826	-17.0125	-10.1019	-211.082	-11.3929	-35.1771	-224.205	-39.986	32.0928	-235.067	-38.9234	5.68487	-242.378	-33.4231	-15.4823	-202.771	-24.065	70.7029	-203.975	-23.4643	101.193	-165.848	-20.8704	86.3215	
326	2.71667	-140.933	-55.0023	92.5005	-127.183	-79.7284	66.9001	-126.191	-97.3817	40.9474	-130.4	-110.414	15.3615	-144.694	-26.3471	15.9781	-134.097	-34.1981	-14.6259	-128.509	-46.6229	-38.2822	-171.785	-11.7348	13.9688	-170.91	-2.88251	-18.4983	-164.776	5.94152	-41.4156	-200.106	-19.1151	17.5062	-206.006	-15.1433	-8.13111	-205.322	-8.04723	-35.952	-222.753	-36.7897	27.4437	-233.48	-36.3338	4.4126	-237.575	-28.28	-13.9814	-203.747	-21.7041	69.7985	-202.322	-19.5974	101.817	-167.314	-18.772	87.0742	
327	2.725	-140.68	-55.5915	91.3118	-128.964	-80.9347	66.4296	-132.336	-96.2765	32.9967	-135.994	-108.044	12.6094	-142.546	-27.526	16.8313	-136.434	-41.0045	-12.5389	-132.701	-58.5512	-33.417	-167.441	-9.29854	11.6902	-166.68	-2.17746	-18.4397	-162.767	7.29067	-44.1817	-199.719	-16.0677	15.3793	-202.851	-10.0146	-7.91846	-202.663	-2.36788	-37.8575	-219.068	-32.9654	27.9535	-229.945	-32.391	7.09251	-235.074	-24.4146	-18.3515	-201.708	-21.5179	72.2823	-201.305	-21.1969	105.036	-166.066	-18.2325	87.3619	
328	2.73333	-137.966	-55.6297	90.6739	-134.087	-79.0481	64.1528	-136.368	-92.7548	30.3748	-142.794	-104.219	10.657	-138.351	-28.725	18.0335	-133.721	-46.6545	-12.8046	-134.334	-67.1085	-29.2201	-167.176	-9.04448	14.0013	-166.046	-3.07754	-15.8065	-157.075	6.55628	-45.8343	-197.386	-15.4407	18.7476	-200.624	-8.61789	-6.58142	-198.255	-1.4145	-36.0767	-221.957	-32.3331	31.0794	-226.68	-28.5661	4.01663	-231.032	-19.3131	-20.4398	-201.497	-19.221	68.801	-203.158	-18.8821	101.559	-162.791	-15.4312	88.0594	
329	2.74167	-143.378	-54.4792	92.826	-134.71	-77.5057	61.0163	-136.018	-92.0996	28.1741	-144.646	-102.111	6.08772	-138.861	-30.1315	14.097	-131.762	-49.083	-8.27684	-136.946	-73.6279	-26.4332	-166.109	-8.49196	14.6259	-163.982	-1.81449	-17.8117	-158.564	7.86577	-48.5569	-199.703	-12.687	19.3839	-199.022	-3.98671	-10.0299	-198.954	2.29837	-35.2886	-219.199	-29.471	27.0333	-222.466	-24.9281	4.46781	-230.278	-17.4985	-16.4666	-203.077	-18.6507	69.7657	-204.554	-20.6219	100.369	-167.748	-16.6574	88.9118	
330	2.75	-140.505	-54.2471	90.3097	-136.255	-75.9623	61.9708	-140.257	-87.9007	27.9302	-142.416	-101.363	7.16206	-139.954	-28.8482	18.0458	-135.616	-48.3643	-8.69401	-133.39	-74.0063	-22.0002	-166.775	-7.19193	11.518	-162.106	-0.99881	-17.8397	-160.491	6.67868	-46.649	-195.485	-12.2176	20.7486	-194.822	-2.5527	-9.676	-192.636	4.41094	-35.3694	-221.185	-27.5791	28.165	-224.474	-22.9381	2.55276	-226.398	-14.3454	-16.6236	-199.08	-18.5534	73.0388	-203.721	-18.5455	102.441	-167.63	-16.4395	89.6431	
331	2.75833	-143.88	-53.8146	95.1009	-133.82	-75.9149	59.8786	-135.305	-89.967	30.8059	-143.069	-98.277	3.51117	-138.465	-29.8624	15.0939	-136.617	-47.2728	-6.61919	-138.379	-77.3351	-23.3242	-165.266	-7.51063	16.3045	-162.562	-1.87377	-15.3796	-155.955	7.06582	-47.8612	-194.199	-11.0888	18.7948	-194.409	-2.73531	-5.57652	-194.458	3.49785	-33.8366	-217.213	-28.7764	31.5353	-225.46	-21.9529	3.81333	-228.826	-11.6884	-17.952	-198.258	-20.0861	74.6097	-203	-20.3336	107.142	-167.455	-15.4558	92.3171	
332	2.76667	-142.215	-53.2977	91.1584	-135.666	-75.5426	64.2046	-135.693	-89.0837	31.5067	-139.204	-99.258	9.64766	-138.329	-28.9997	19.2433	-134.19	-49.1384	-8.63517	-138.543	-74.9398	-23.8383	-165.665	-6.53353	11.9328	-159.087	-1.58046	-13.4845	-159.348	5.60442	-44.8064	-198.097	-10.5745	19.226	-197.613	-1.81776	-7.25265	-191.565	4.55583	-33.9416	-215.28	-28.4881	32.2151	-223.908	-20.0725	2.70188	-229.144	-13.68	-15.3077	-199.842	-19.6178	73.0444	-206.002	-17.8242	103.769	-168.661	-15.3469	92.1167	
333	2.775	-139.526	-52.9812	91.255	-130.533	-76.706	64.4306	-131.923	-90.3904	31.048	-134.898	-100.9	9.35391	-141.181	-26.8122	18.7935	-131.874	-41.9363	-6.04034	-131.7	-67.4768	-25.3448	-165.713	-6.42664	13.583	-161.538	-0.0449377	-15.7566	-158.548	7.40605	-44.1162	-196.255	-11.2402	20.0014	-196.73	-3.10929	-7.02895	-196.144	4.82003	-37.6886	-218.816	-27.9257	28.4581	-221.378	-23.0509	8.09537	-227.139	-13.0471	-13.5843	-199.989	-20.0155	69.5482	-201.536	-20.8727	105.951	-165.587	-14.6696	90.0735	
334	2.78333	-143.203	-53.0524	92.5505	-131.83	-75.8658	64.3489	-130.46	-89.8373	31.0883	-130.504	-103.529	13.871	-142.837	-23.8608	16.3083	-132.776	-35.549	-8.44451	-131.415	-58.11	-33.5033	-167.725	-7.29699	16.8588	-163.159	1.33136	-13.3418	-156.899	10.6114	-44.3388	-193.868	-9.98395	17.2958	-200.011	-3.23087	-9.33351	-195.647	2.27206	-33.6419	-217.946	-29.8519	31.5579	-226.319	-24.8171	5.92885	-230.933	-15.1648	-15.598	-199.842	-20.3076	73.1777	-201.481	-20.1861	105.053	-164.035	-16.4396	90.2804	
335	2.79167	-137.525	-51.6662	90.7237	-132.81	-73.8169	65.5321	-126.396	-89.7708	34.8177	-124.306	-103.344	13.1204	-142.388	-18.6645	19.3819	-133.988	-24.5483	-9.3993	-132.419	-37.6467	-35.5638	-168.319	-4.5191	13.5472	-163.42	4.72547	-14.8682	-164.647	13.5634	-43.6239	-196.506	-12.313	20.218	-202.779	-5.71906	-5.97841	-200.127	3.06458	-36.281	-222.907	-31.8974	30.3233	-226.168	-27.1737	3.60796	-233.218	-19.944	-14.4658	-199.868	-19.4922	71.9812	-201.974	-20.056	107.28	-170.315	-16.9438	89.052	
